<svg width="18" height="16" viewBox="0 0 18 16" fill="none" xmlns="http://www.w3.org/2000/svg">
<path fill-rule="evenodd" clip-rule="evenodd" d="M17.0667 6.89191C17.0667 10.6982 13.2462 13.7838 8.53333 13.7838C8.04839 13.7838 7.57289 13.7511 7.11004 13.6884L2.95925 16L2.99814 12.1374C1.16339 10.8733 0 8.99233 0 6.89191C0 3.08561 3.8205 0 8.53333 0C13.2462 0 17.0667 3.08561 17.0667 6.89191ZM4.8 4.26667C4.50545 4.26667 4.26667 4.50545 4.26667 4.8C4.26667 5.09455 4.50545 5.33333 4.8 5.33333H12.2667C12.5612 5.33333 12.8 5.09455 12.8 4.8C12.8 4.50545 12.5612 4.26667 12.2667 4.26667H4.8ZM4.26667 6.93333C4.26667 6.63878 4.50545 6.4 4.8 6.4H12.2667C12.5612 6.4 12.8 6.63878 12.8 6.93333C12.8 7.22789 12.5612 7.46667 12.2667 7.46667H4.8C4.50545 7.46667 4.26667 7.22789 4.26667 6.93333ZM4.8 8.53333C4.50545 8.53333 4.26667 8.77211 4.26667 9.06667C4.26667 9.36122 4.50545 9.6 4.8 9.6H12.2667C12.5612 9.6 12.8 9.36122 12.8 9.06667C12.8 8.77211 12.5612 8.53333 12.2667 8.53333H4.8Z" fill="white"/>
</svg>
