<svg width="20" height="16" viewBox="0 0 20 16" fill="none" xmlns="http://www.w3.org/2000/svg">
<path fill-rule="evenodd" clip-rule="evenodd" d="M2 0C0.895431 0 0 0.895431 0 2V14C0 15.1046 0.895431 16 2 16H18C19.1046 16 20 15.1046 20 14V2C20 0.895431 19.1046 0 18 0H2ZM8.60775 11.2781C9.18716 10.7968 9.50824 10.1373 9.57098 9.29947H7.91024C7.87334 9.77362 7.72756 10.1248 7.47291 10.3529C7.22196 10.5775 6.83999 10.6898 6.32701 10.6898C5.75867 10.6898 5.34164 10.4955 5.07592 10.107C4.81389 9.71836 4.68288 9.10339 4.68288 8.26203V7.6738C4.69026 6.86809 4.8305 6.27451 5.1036 5.89305C5.38039 5.50802 5.79557 5.31551 6.34915 5.31551C6.85844 5.31551 7.23672 5.42959 7.48399 5.65775C7.73494 5.88235 7.88072 6.24599 7.92131 6.74866H9.58205C9.49348 5.87879 9.16502 5.20321 8.59668 4.72193C8.02834 4.24064 7.27916 4 6.34915 4C5.67747 4 5.08699 4.1533 4.5777 4.45989C4.0721 4.76292 3.68275 5.19964 3.40965 5.77005C3.13655 6.34046 3 7 3 7.74866V8.2246C3 9.3975 3.29524 10.3209 3.88573 10.9947C4.4799 11.6649 5.29366 12 6.32701 12C7.27178 12 8.03203 11.7594 8.60775 11.2781ZM16.0257 11.2781C16.6051 10.7968 16.9262 10.1373 16.9889 9.29947H15.3282C15.2913 9.77362 15.1455 10.1248 14.8909 10.3529C14.6399 10.5775 14.2579 10.6898 13.745 10.6898C13.1766 10.6898 12.7596 10.4955 12.4939 10.107C12.2318 9.71836 12.1008 9.10339 12.1008 8.26203V7.6738C12.1082 6.86809 12.2485 6.27451 12.5216 5.89305C12.7983 5.50802 13.2135 5.31551 13.7671 5.31551C14.2764 5.31551 14.6547 5.42959 14.9019 5.65775C15.1529 5.88235 15.2987 6.24599 15.3393 6.74866H17C16.9114 5.87879 16.583 5.20321 16.0146 4.72193C15.4463 4.24064 14.6971 4 13.7671 4C13.0954 4 12.5049 4.1533 11.9957 4.45989C11.49 4.76292 11.1007 5.19964 10.8276 5.77005C10.5545 6.34046 10.418 7 10.418 7.74866V8.2246C10.418 9.3975 10.7132 10.3209 11.3037 10.9947C11.8979 11.6649 12.7116 12 13.745 12C14.6897 12 15.45 11.7594 16.0257 11.2781Z" fill="white"/>
</svg>
