<svg width="396" height="330" viewBox="0 0 396 330" fill="none" xmlns="http://www.w3.org/2000/svg">
<rect width="192.595" height="14.4998" rx="7.24992" transform="matrix(0.707107 -0.707107 -0.707107 -0.707107 -30.001 263.438)" fill="url(#paint0_linear)"/>
<rect width="192.595" height="21.1811" rx="10.5906" transform="matrix(0.707107 -0.707107 -0.707107 -0.707107 -2.27637 157.163)" fill="url(#paint1_linear)"/>
<rect width="192.595" height="14.4998" rx="7.24992" transform="matrix(0.707107 -0.707107 -0.707107 -0.707107 -7.00098 399.438)" fill="url(#paint2_linear)"/>
<rect width="429.358" height="7.80083" rx="3.90041" transform="matrix(0.707107 -0.707107 -0.707107 -0.707107 -33.417 309.118)" fill="url(#paint3_linear)"/>
<rect width="375.712" height="2.88812" rx="1.44406" transform="matrix(0.707107 -0.707107 -0.707107 -0.707107 -99.958 404.711)" fill="url(#paint4_linear)"/>
<rect width="192.595" height="14.4998" rx="7.24992" transform="matrix(0.707107 -0.707107 -0.707107 -0.707107 258.998 399.438)" fill="url(#paint5_linear)"/>
<rect width="192.595" height="14.4998" rx="7.24992" transform="matrix(0.707107 -0.707107 -0.707107 -0.707107 154.999 389.438)" fill="url(#paint6_linear)"/>
<rect width="264.858" height="7.97029" rx="3.98514" transform="matrix(0.707107 -0.707107 -0.707107 -0.707107 179.382 321.821)" fill="url(#paint7_linear)"/>
<rect width="111.159" height="14.4998" rx="7.24992" transform="matrix(0.707107 -0.707107 -0.707107 -0.707107 212.583 215.854)" fill="url(#paint8_linear)"/>
<rect width="192.595" height="21.4892" rx="10.7446" transform="matrix(0.707107 -0.707107 -0.707107 -0.707107 96.9414 378.381)" fill="url(#paint9_linear)"/>
<defs>
<linearGradient id="paint0_linear" x1="201.081" y1="7.24979" x2="-8.18945" y2="7.24976" gradientUnits="userSpaceOnUse">
<stop stop-color="#0057B8"/>
<stop offset="1" stop-color="#0582CA" stop-opacity="0"/>
</linearGradient>
<linearGradient id="paint1_linear" x1="201.081" y1="10.5904" x2="-8.18945" y2="10.5903" gradientUnits="userSpaceOnUse">
<stop stop-color="#003979"/>
<stop offset="1" stop-color="#0582CA" stop-opacity="0"/>
</linearGradient>
<linearGradient id="paint2_linear" x1="201.081" y1="7.24979" x2="-8.18945" y2="7.24976" gradientUnits="userSpaceOnUse">
<stop stop-color="#004CA1"/>
<stop offset="1" stop-color="#0582CA" stop-opacity="0"/>
</linearGradient>
<linearGradient id="paint3_linear" x1="448.275" y1="3.90034" x2="-18.2569" y2="3.90012" gradientUnits="userSpaceOnUse">
<stop stop-color="#007AC0"/>
<stop offset="1" stop-color="#0582CA" stop-opacity="0"/>
</linearGradient>
<linearGradient id="paint4_linear" x1="392.265" y1="1.44404" x2="-15.9758" y2="1.44358" gradientUnits="userSpaceOnUse">
<stop stop-color="#0057B8"/>
<stop offset="1" stop-color="#0582CA" stop-opacity="0"/>
</linearGradient>
<linearGradient id="paint5_linear" x1="201.081" y1="7.24979" x2="-8.18945" y2="7.24976" gradientUnits="userSpaceOnUse">
<stop stop-color="#5690D0"/>
<stop offset="1" stop-color="#0582CA" stop-opacity="0"/>
</linearGradient>
<linearGradient id="paint6_linear" x1="201.081" y1="7.24979" x2="-8.18945" y2="7.24976" gradientUnits="userSpaceOnUse">
<stop stop-color="#0057B8"/>
<stop offset="1" stop-color="#0582CA" stop-opacity="0"/>
</linearGradient>
<linearGradient id="paint7_linear" x1="276.527" y1="3.98507" x2="-11.2622" y2="3.98499" gradientUnits="userSpaceOnUse">
<stop stop-color="#0057B8"/>
<stop offset="1" stop-color="#0582CA" stop-opacity="0"/>
</linearGradient>
<linearGradient id="paint8_linear" x1="116.056" y1="7.24979" x2="-4.72664" y2="7.24978" gradientUnits="userSpaceOnUse">
<stop stop-color="#0079FF"/>
<stop offset="1" stop-color="white" stop-opacity="0"/>
</linearGradient>
<linearGradient id="paint9_linear" x1="201.081" y1="10.7444" x2="-8.18945" y2="10.7444" gradientUnits="userSpaceOnUse">
<stop stop-color="#0057B8"/>
<stop offset="1" stop-color="#0582CA" stop-opacity="0"/>
</linearGradient>
</defs>
</svg>
