<svg width="22" height="18" viewBox="0 0 22 18" fill="none" xmlns="http://www.w3.org/2000/svg">
<rect width="2.2" height="6.75" transform="matrix(1 0 0 -1 0 18)" fill="white"/>
<rect width="2.25" height="6.6" transform="matrix(-3.88546e-08 1 1 4.91753e-08 0 15.75)" fill="white"/>
<rect width="2.25" height="6.6" transform="matrix(-4.274e-08 -1 -1 4.47048e-08 22 18)" fill="white"/>
<rect width="2.2" height="6.75" transform="matrix(1 0 0 -1 19.7999 18)" fill="white"/>
<rect width="2.2" height="6.75" transform="matrix(-1 7.94753e-08 9.61651e-08 1 22 0)" fill="white"/>
<rect width="2.25" height="6.6" transform="matrix(-4.274e-08 -1 -1 4.47048e-08 22 2.25)" fill="white"/>
<rect width="2.25" height="6.6" transform="matrix(7.54979e-08 1 1 -7.54979e-08 0 0)" fill="white"/>
<rect width="2.2" height="6.75" transform="matrix(-1 2.88968e-08 3.49652e-08 1 2.20007 0)" fill="white"/>
</svg>
