<svg width="20" height="16" viewBox="0 0 20 16" fill="none" xmlns="http://www.w3.org/2000/svg">
<rect width="2" height="6" transform="matrix(1 0 0 -1 0 16)" fill="white"/>
<rect width="2" height="6" transform="matrix(-4.37114e-08 1 1 4.37114e-08 0 14)" fill="white"/>
<rect width="2" height="6" transform="matrix(-4.37114e-08 -1 -1 4.37114e-08 20 16)" fill="white"/>
<rect width="2" height="6" transform="matrix(1 0 0 -1 18 16)" fill="white"/>
<rect width="2" height="6" transform="matrix(-1 8.74228e-08 8.74228e-08 1 20 0)" fill="white"/>
<rect width="2" height="6" transform="matrix(-4.37114e-08 -1 -1 4.37114e-08 20 2)" fill="white"/>
<rect width="2" height="6" transform="matrix(7.54979e-08 1 1 -7.54979e-08 0 0)" fill="white"/>
<rect width="2" height="6" transform="matrix(-1 3.17865e-08 3.17865e-08 1 2 0)" fill="white"/>
</svg>
