<svg width="22" height="15" viewBox="0 0 22 15" fill="none" xmlns="http://www.w3.org/2000/svg">
<path d="M1.54505 7.26073C1.36433 7.17248 1.27696 6.96399 1.34077 6.77326C1.72698 5.61882 2.40898 4.58574 3.31881 3.77696L3.35379 3.74586C3.5079 3.60886 3.73967 3.60726 3.89566 3.7421L6.76787 6.22486C6.8504 6.2962 6.85595 6.42226 6.78002 6.50059C6.14389 7.15672 5.63025 7.92134 5.26335 8.75832L5.23234 8.82906C5.1866 8.9334 5.06321 8.97868 4.96083 8.92869L1.54505 7.26073Z" fill="white"/>
<path d="M5.40835 2.48294C5.3079 2.30871 5.35207 2.08701 5.51164 1.96459C6.47748 1.22361 7.62064 0.748658 8.8272 0.587076L8.8736 0.580862C9.07797 0.553493 9.27099 0.681786 9.32489 0.880815L10.3172 4.54536C10.3458 4.65066 10.2799 4.75827 10.1731 4.78073C9.2788 4.96885 8.42536 5.31541 7.65309 5.80404L7.58782 5.84533C7.49155 5.90624 7.36393 5.87476 7.30702 5.77607L5.40835 2.48294Z" fill="white"/>
<path d="M0.893602 13.2478C0.716786 13.2698 0.550195 13.16 0.500634 12.9889C0.173427 11.8589 0.169204 10.6599 0.488442 9.52765L0.500566 9.48465C0.550155 9.30878 0.720279 9.19508 0.901747 9.21653L4.80441 9.67791C4.90268 9.68953 4.97021 9.78242 4.95095 9.87948C4.78078 10.7371 4.77634 11.6194 4.93787 12.4788L4.95146 12.5511C4.97054 12.6526 4.90003 12.7492 4.79752 12.7619L0.893602 13.2478Z" fill="white"/>
<path d="M20.4549 7.26073C20.6357 7.17248 20.723 6.96399 20.6592 6.77326C20.273 5.61882 19.591 4.58574 18.6812 3.77696L18.6462 3.74586C18.4921 3.60886 18.2603 3.60726 18.1043 3.7421L15.2321 6.22486C15.1496 6.2962 15.144 6.42226 15.22 6.50059C15.8561 7.15672 16.3697 7.92134 16.7366 8.75832L16.7677 8.82906C16.8134 8.9334 16.9368 8.97868 17.0392 8.92869L20.4549 7.26073Z" fill="white"/>
<path d="M16.4763 2.48263C16.5767 2.30838 16.5325 2.08669 16.3729 1.96429C15.407 1.22344 14.2638 0.748651 13.0572 0.587234L13.0108 0.581027C12.8064 0.553685 12.6134 0.682005 12.5595 0.881042L11.5677 4.54572C11.5392 4.65103 11.6051 4.75863 11.7119 4.78107C12.6062 4.96907 13.4597 5.31552 14.232 5.80403L14.2973 5.84532C14.3936 5.90622 14.5212 5.87472 14.5781 5.77602L16.4763 2.48263Z" fill="white"/>
<path d="M21.1064 13.2478C21.2832 13.2698 21.4498 13.16 21.4994 12.9889C21.8266 11.8589 21.8308 10.6599 21.5116 9.52765L21.4994 9.48465C21.4498 9.30878 21.2797 9.19508 21.0983 9.21653L17.1956 9.67791C17.0973 9.68953 17.0298 9.78242 17.0491 9.87948C17.2192 10.7371 17.2237 11.6194 17.0621 12.4788L17.0485 12.5511C17.0295 12.6526 17.1 12.7492 17.2025 12.7619L21.1064 13.2478Z" fill="white"/>
<circle cx="11.1172" cy="12.0831" r="2.05333" transform="rotate(-45 11.1172 12.0831)" fill="white"/>
<path d="M6.98565 8.22935C6.86215 8.047 7.08103 7.82811 7.26339 7.95161L10.6544 10.2481C10.7585 10.3185 10.7725 10.4663 10.6837 10.5551L9.58915 11.6497C9.50033 11.7385 9.35257 11.7244 9.28213 11.6204L6.98565 8.22935Z" fill="white"/>
</svg>
