<svg width="24.000000000000004" height="24.000000000000004" xmlns="http://www.w3.org/2000/svg">

 <g>
  <title>background</title>
  <rect fill="none" id="canvas_background" height="402" width="582" y="-1" x="-1"/>
 </g>
 <g>
  <title>Layer 1</title>
  <rect stroke="null" id="svg_12" height="4" width="0.136986" y="-0.005533" x="5.390429" stroke-opacity="null" stroke-width="null" fill="#7f7f7f"/>
  <rect stroke="null" id="svg_13" height="6.609571" width="0.136986" y="-0.005533" x="6.45207" stroke-opacity="null" stroke-width="null" fill="#7f7f7f"/>
  <rect stroke="null" id="svg_14" height="4" width="0.136986" y="-0.005533" x="7.479464" stroke-opacity="null" stroke-width="null" fill="#7f7f7f"/>
  <rect stroke="null" id="svg_15" height="6.609571" width="0.136986" y="-0.005533" x="8.575352" stroke-opacity="null" stroke-width="null" fill="#7f7f7f"/>
  <rect stroke="null" id="svg_16" height="4" width="0.136986" y="-0.005533" x="9.602746" stroke-opacity="null" stroke-width="null" fill="#7f7f7f"/>
  <rect stroke="null" id="svg_17" height="6.609571" width="0.136986" y="-0.005533" x="0.082224" stroke-opacity="null" stroke-width="null" fill="#7f7f7f"/>
  <rect stroke="null" id="svg_18" height="4" width="0.136986" y="-0.005533" x="1.212358" stroke-opacity="null" stroke-width="null" fill="#7f7f7f"/>
  <rect stroke="null" id="svg_19" height="6.609571" width="0.136986" y="-0.005533" x="2.273999" stroke-opacity="null" stroke-width="null" fill="#7f7f7f"/>
  <rect stroke="null" id="svg_20" height="4" width="0.136986" y="-0.005533" x="3.33564" stroke-opacity="null" stroke-width="null" fill="#7f7f7f"/>
  <rect stroke="null" id="svg_21" height="6.609571" width="0.136986" y="-0.005533" x="4.363034" stroke-opacity="null" stroke-width="null" fill="#7f7f7f"/>
  <rect stroke="null" id="svg_27" height="6.609571" width="0.136986" y="-0.005533" x="10.698634" stroke-opacity="null" stroke-width="null" fill="#7f7f7f"/>
  <rect stroke="null" id="svg_28" height="4" width="0.136986" y="-0.005533" x="11.726028" stroke-opacity="null" stroke-width="null" fill="#7f7f7f"/>
  <rect stroke="null" id="svg_29" height="6.609571" width="0.136986" y="-0.005533" x="12.753423" stroke-opacity="null" stroke-width="null" fill="#7f7f7f"/>
  <rect stroke="null" id="svg_30" height="4" width="0.136986" y="-0.005533" x="13.780817" stroke-opacity="null" stroke-width="null" fill="#7f7f7f"/>
  <rect stroke="null" id="svg_31" height="6.609571" width="0.136986" y="-0.005533" x="14.808212" stroke-opacity="null" stroke-width="null" fill="#7f7f7f"/>
  <rect stroke="null" id="svg_32" height="4" width="0.136986" y="-0.005533" x="15.835606" stroke-opacity="null" stroke-width="null" fill="#7f7f7f"/>
  <rect stroke="null" id="svg_33" height="6.609571" width="0.136986" y="-0.005533" x="16.863001" stroke-opacity="null" stroke-width="null" fill="#7f7f7f"/>
  <rect stroke="null" id="svg_34" height="4" width="0.136986" y="-0.005533" x="17.993135" stroke-opacity="null" stroke-width="null" fill="#7f7f7f"/>
  <rect stroke="null" id="svg_35" height="6.609571" width="0.136986" y="-0.005533" x="19.123269" stroke-opacity="null" stroke-width="null" fill="#7f7f7f"/>
  <rect stroke="null" id="svg_36" height="4" width="0.136986" y="-0.005533" x="20.287649" stroke-opacity="null" stroke-width="null" fill="#7f7f7f"/>
  <rect stroke="null" id="svg_37" height="6.609571" width="0.136986" y="-0.005533" x="21.520522" stroke-opacity="null" stroke-width="null" fill="#7f7f7f"/>
  <rect stroke="null" id="svg_38" height="4" width="0.136986" y="-0.005533" x="22.684903" stroke-opacity="null" stroke-width="null" fill="#7f7f7f"/>
  <rect stroke="null" id="svg_68" height="4" width="0.136986" y="19.994413" x="5.390429" stroke-opacity="null" stroke-width="null" fill="#7f7f7f"/>
  <rect stroke="null" id="svg_69" height="7" width="0.136986" y="17.014969" x="6.486316" stroke-opacity="null" stroke-width="null" fill="#7f7f7f"/>
  <rect stroke="null" id="svg_70" height="4" width="0.136986" y="19.994413" x="7.513711" stroke-opacity="null" stroke-width="null" fill="#7f7f7f"/>
  <rect stroke="null" id="svg_71" height="7" width="0.136986" y="17.014969" x="8.609598" stroke-opacity="null" stroke-width="null" fill="#7f7f7f"/>
  <rect stroke="null" id="svg_72" height="4" width="0.136986" y="19.994413" x="9.636993" stroke-opacity="null" stroke-width="null" fill="#7f7f7f"/>
  <rect stroke="null" id="svg_73" height="7" width="0.136986" y="17.014969" x="0.082224" stroke-opacity="null" stroke-width="null" fill="#7f7f7f"/>
  <rect stroke="null" id="svg_74" height="4" width="0.136986" y="20.02866" x="1.143865" stroke-opacity="null" stroke-width="null" fill="#7f7f7f"/>
  <rect stroke="null" id="svg_75" height="7" width="0.136986" y="17.014969" x="2.239752" stroke-opacity="null" stroke-width="null" fill="#7f7f7f"/>
  <rect stroke="null" id="svg_76" height="4" width="0.136986" y="19.994413" x="3.33564" stroke-opacity="null" stroke-width="null" fill="#7f7f7f"/>
  <rect stroke="null" id="svg_77" height="7" width="0.136986" y="17.014969" x="4.363034" stroke-opacity="null" stroke-width="null" fill="#7f7f7f"/>
  <rect stroke="null" id="svg_78" height="7" width="0.136986" y="17.014969" x="10.73288" stroke-opacity="null" stroke-width="null" fill="#7f7f7f"/>
  <rect stroke="null" id="svg_79" height="4" width="0.136986" y="19.994413" x="11.760275" stroke-opacity="null" stroke-width="null" fill="#7f7f7f"/>
  <rect stroke="null" id="svg_80" height="7" width="0.136986" y="17.014969" x="12.787669" stroke-opacity="null" stroke-width="null" fill="#7f7f7f"/>
  <rect stroke="null" id="svg_81" height="4" width="0.136986" y="19.994413" x="13.815064" stroke-opacity="null" stroke-width="null" fill="#7f7f7f"/>
  <rect stroke="null" id="svg_82" height="7" width="0.136986" y="17.014969" x="14.842458" stroke-opacity="null" stroke-width="null" fill="#7f7f7f"/>
  <rect stroke="null" id="svg_83" height="4" width="0.136986" y="19.994413" x="15.869853" stroke-opacity="null" stroke-width="null" fill="#7f7f7f"/>
  <rect stroke="null" id="svg_84" height="7" width="0.136986" y="17.014969" x="16.897247" stroke-opacity="null" stroke-width="null" fill="#7f7f7f"/>
  <rect stroke="null" id="svg_85" height="4" width="0.136986" y="19.994413" x="18.027381" stroke-opacity="null" stroke-width="null" fill="#7f7f7f"/>
  <rect stroke="null" id="svg_86" height="7" width="0.136986" y="17.014969" x="19.157515" stroke-opacity="null" stroke-width="null" fill="#7f7f7f"/>
  <rect stroke="null" id="svg_87" height="4" width="0.136986" y="19.994413" x="20.321895" stroke-opacity="null" stroke-width="null" fill="#7f7f7f"/>
  <rect stroke="null" id="svg_88" height="7" width="0.136986" y="17.014969" x="21.554769" stroke-opacity="null" stroke-width="null" fill="#7f7f7f"/>
  <rect stroke="null" id="svg_89" height="4" width="0.136986" y="19.994413" x="22.719149" stroke-opacity="null" stroke-width="null" fill="#7f7f7f"/>
 </g>
</svg>