<svg width="50" height="45" viewBox="0 0 50 45" fill="none" xmlns="http://www.w3.org/2000/svg">
<circle cx="32.9748" cy="30.9745" r="6.52532" stroke="white"/>
<path d="M32.4861 32.4263H30.6444L30.2942 33.4682H29.1772L31.075 28.4111H32.0484L33.9567 33.4682H32.8398L32.4861 32.4263ZM30.928 31.5823H32.2025L31.5617 29.6893L30.928 31.5823Z" fill="white"/>
<path d="M35.8447 33.4682C35.798 33.3779 35.7642 33.2656 35.7432 33.1313C35.4981 33.4023 35.1794 33.5377 34.7873 33.5377C34.4161 33.5377 34.108 33.4312 33.8629 33.2182C33.6201 33.0051 33.4987 32.7365 33.4987 32.4124C33.4987 32.0141 33.647 31.7084 33.9434 31.4954C34.2422 31.2824 34.6729 31.1747 35.2354 31.1724H35.7011V30.9571C35.7011 30.7834 35.6556 30.6445 35.5646 30.5403C35.4759 30.4361 35.3347 30.384 35.1409 30.384C34.9705 30.384 34.8363 30.4245 34.7382 30.5055C34.6425 30.5866 34.5947 30.6977 34.5947 30.839H33.5828C33.5828 30.6213 33.6505 30.4199 33.7858 30.2346C33.9212 30.0494 34.1126 29.9046 34.3601 29.8005C34.6075 29.6939 34.8853 29.6407 35.1934 29.6407C35.6603 29.6407 36.0303 29.7576 36.3034 29.9915C36.5788 30.223 36.7166 30.5495 36.7166 30.971V32.5999C36.7189 32.9565 36.7691 33.2263 36.8671 33.4092V33.4682H35.8447ZM35.0079 32.7701C35.1572 32.7701 35.295 32.7377 35.421 32.6729C35.5471 32.6057 35.6404 32.5166 35.7011 32.4054V31.7594H35.323C34.8164 31.7594 34.5468 31.9331 34.5141 32.2804L34.5106 32.3394C34.5106 32.4645 34.555 32.5675 34.6437 32.6486C34.7324 32.7296 34.8538 32.7701 35.0079 32.7701Z" fill="white"/>
<circle cx="17.0253" cy="31.0693" r="6.52532" stroke="white"/>
<path fill-rule="evenodd" clip-rule="evenodd" d="M19.2089 29.3608V27.8418H17.595L16.9304 27.8418L16.9304 29.3608V31.7221C16.7349 31.6091 16.508 31.5443 16.2659 31.5443C15.5318 31.5443 14.9368 32.1394 14.9368 32.8734C14.9368 33.6075 15.5318 34.2026 16.2659 34.2026C16.9999 34.2026 17.595 33.6075 17.595 32.8734V29.3608L19.2089 29.3608Z" fill="white"/>
<circle cx="17.0253" cy="15.0253" r="6.52532" stroke="white"/>
<rect x="14.0823" y="11.2275" width="5.86881" height="7.59494" fill="white"/>
<path d="M15.8261 16.9041H15.3299V18.2536H14.9961V16.9041H14.5066V16.6338H15.8261V16.9041Z" fill="#C4C4C4"/>
<path d="M16.916 17.1923L17.2198 16.6338H17.6036L17.1319 17.437L17.6158 18.2536H17.2276L16.916 17.6863L16.6045 18.2536H16.2163L16.7002 17.437L16.2285 16.6338H16.6123L16.916 17.1923Z" fill="#C4C4C4"/>
<path d="M19.3233 16.9041H18.8271V18.2536H18.4933V16.9041H18.0038V16.6338H19.3233V16.9041Z" fill="#C4C4C4"/>
<rect x="14.3672" y="16.5439" width="0.189873" height="0.56962" fill="white"/>
<rect x="19.3037" y="16.5439" width="0.189873" height="0.56962" fill="white"/>
<rect x="14.5569" y="11.8926" width="2.46835" height="0.474684" fill="#C4C4C4"/>
<rect x="14.5569" y="13.0312" width="4.74684" height="0.474684" fill="#C4C4C4"/>
<rect x="14.5569" y="14.1709" width="4.74684" height="0.474684" fill="#C4C4C4"/>
<rect x="14.5569" y="15.3105" width="4.74684" height="0.474684" fill="#C4C4C4"/>
<circle cx="32.9748" cy="15.0253" r="6.52532" stroke="white"/>
<path fill-rule="evenodd" clip-rule="evenodd" d="M33.7509 12.4619H33.2157L33.7343 13.6013H32.5333L32.042 12.4619H31.5068L32.0254 13.6013H30.8245L30.343 12.4849C29.8936 12.5829 29.5571 12.9831 29.5571 13.4619V16.4936C29.5571 17.0458 30.0048 17.4936 30.5571 17.4936H35.3926C35.9449 17.4936 36.3926 17.0458 36.3926 16.4936V12.4619H34.9245L35.4432 13.6013H34.2422L33.7509 12.4619Z" fill="white"/>
</svg>
