<svg width="50" height="45" viewBox="0 0 50 45" fill="none" xmlns="http://www.w3.org/2000/svg">
<path d="M25.8792 19.5105L36.7336 25.0843C38.5184 26.0008 38.5508 28.5406 36.7899 29.5023L25.9366 35.4299C25.1787 35.8439 24.2607 35.8373 23.5088 35.4125L13.0138 29.4844C11.2945 28.5132 11.3268 26.0259 13.0707 25.0997L23.5646 19.5265C24.287 19.1428 25.1515 19.1368 25.8792 19.5105Z" fill="#0582CA" stroke="white"/>
<path d="M25.8792 17.0447L36.7336 22.6185C38.5184 23.535 38.5508 26.0748 36.7899 27.0365L25.9366 32.9641C25.1787 33.378 24.2607 33.3715 23.5088 32.9467L13.0138 27.0186C11.2945 26.0474 11.3268 23.5601 13.0707 22.6339L23.5646 17.0607C24.287 16.677 25.1515 16.671 25.8792 17.0447Z" fill="#0582CA" stroke="white"/>
<path d="M25.8792 14.1824L36.7336 19.7562C38.5184 20.6727 38.5508 23.2125 36.7899 24.1742L25.9366 30.1018C25.1787 30.5157 24.2607 30.5092 23.5088 30.0844L13.0138 24.1562C11.2945 23.1851 11.3268 20.6978 13.0707 19.7716L23.5646 14.1984C24.287 13.8147 25.1515 13.8087 25.8792 14.1824Z" fill="#0582CA" stroke="white"/>
<path d="M25.8792 11.3201L36.7336 16.8939C38.5185 17.8104 38.5508 20.3502 36.7899 21.3119L25.9366 27.2395C25.1787 27.6534 24.2607 27.6469 23.5088 27.2221L13.0138 21.2939C11.2945 20.3228 11.3268 17.8355 13.0707 16.9093L23.5646 11.3361C24.287 10.9524 25.1515 10.9464 25.8792 11.3201Z" fill="#0582CA" stroke="white"/>
</svg>
