<svg width="50" height="45" viewBox="0 0 50 45" fill="none" xmlns="http://www.w3.org/2000/svg">
<circle cx="15.3227" cy="14.4194" r="1.91935" stroke="white"/>
<circle cx="34.4194" cy="14.4194" r="1.91935" stroke="white"/>
<circle cx="25.0001" cy="18.2904" r="3.85484" stroke="white"/>
<path d="M31.7581 28.452C31.7581 31.2843 28.8423 33.7584 25 33.7584C21.1577 33.7584 18.2419 31.2843 18.2419 28.452C18.2419 25.6196 21.1577 23.1455 25 23.1455C28.8423 23.1455 31.7581 25.6196 31.7581 28.452Z" stroke="white"/>
<path d="M20.1452 21.1615C20.1452 23.2013 18.0845 25.0163 15.3226 25.0163C12.5607 25.0163 10.5 23.2013 10.5 21.1615C10.5 19.1216 12.5607 17.3066 15.3226 17.3066C18.0845 17.3066 20.1452 19.1216 20.1452 21.1615Z" stroke="white"/>
<path d="M39.4999 21.1615C39.4999 23.2013 37.4392 25.0163 34.6773 25.0163C31.9154 25.0163 29.8547 23.2013 29.8547 21.1615C29.8547 19.1216 31.9154 17.3066 34.6773 17.3066C37.4392 17.3066 39.4999 19.1216 39.4999 21.1615Z" stroke="white"/>
</svg>
