<svg width="12" height="13" viewBox="0 0 12 13" fill="none" xmlns="http://www.w3.org/2000/svg">
<path fill-rule="evenodd" clip-rule="evenodd" d="M5.99962 12.9023C9.31333 12.9023 11.9996 10.2161 11.9996 6.90234C11.9996 3.58864 9.31333 0.902344 5.99962 0.902344C4.18649 0.902344 2.5612 1.70658 1.46101 2.97778L0.515625 2.43195V5.79348L3.42679 4.11272L2.34614 3.4888C3.25865 2.51256 4.55787 1.90234 5.99962 1.90234C8.76104 1.90234 10.9996 4.14092 10.9996 6.90234C10.9996 9.66377 8.76104 11.9023 5.99962 11.9023C4.20898 11.9023 2.63819 10.9611 1.75506 9.5463L0.88849 10.0466C1.94488 11.7602 3.83886 12.9023 5.99962 12.9023Z" fill="white"/>
</svg>
