<svg width="12" height="13" viewBox="0 0 12 13" fill="none" xmlns="http://www.w3.org/2000/svg">
<path fill-rule="evenodd" clip-rule="evenodd" d="M5.99989 12.9023C2.68619 12.9023 -0.000105858 10.2161 -0.000105858 6.90234C-0.000105858 3.58864 2.68619 0.902344 5.99989 0.902344C7.81302 0.902344 9.43831 1.70658 10.5385 2.97778L11.4839 2.43195V5.79348L8.57272 4.11272L9.65337 3.4888C8.74086 2.51256 7.44164 1.90234 5.99989 1.90234C3.23847 1.90234 0.999894 4.14092 0.999894 6.90234C0.999894 9.66377 3.23847 11.9023 5.99989 11.9023C7.79053 11.9023 9.36132 10.9611 10.2444 9.5463L11.111 10.0466C10.0546 11.7602 8.16065 12.9023 5.99989 12.9023Z" fill="white"/>
</svg>
