<svg width="20" height="8" viewBox="0 0 20 8" fill="none" xmlns="http://www.w3.org/2000/svg">
<path d="M4.55202 5.58833H1.61368L0.953757 7.3905H0L2.67823 0.485352H3.48748L6.17052 7.3905H5.22158L4.55202 5.58833ZM1.89306 4.83901H4.27746L3.08285 1.60934L1.89306 4.83901Z" fill="white"/>
<path d="M10.1349 6.88305C9.78805 7.28458 9.27906 7.48535 8.6079 7.48535C8.05234 7.48535 7.62845 7.32727 7.33622 7.0111C7.04721 6.69177 6.90109 6.22067 6.89788 5.59782V2.25906H7.78902V5.5741C7.78902 6.35188 8.11015 6.74077 8.75241 6.74077C9.4332 6.74077 9.886 6.491 10.1108 5.99145V2.25906H11.0019V7.3905H10.1541L10.1349 6.88305Z" fill="white"/>
<path d="M13.5694 1.01652V2.25906H14.5424V2.93725H13.5694V6.1195C13.5694 6.32501 13.6127 6.47993 13.6994 6.58427C13.7861 6.68544 13.9338 6.73603 14.1426 6.73603C14.2453 6.73603 14.3866 6.71706 14.5665 6.67912V7.3905C14.332 7.45373 14.104 7.48535 13.8825 7.48535C13.4843 7.48535 13.184 7.36679 12.9817 7.12966C12.7794 6.89253 12.6782 6.55581 12.6782 6.1195V2.93725H11.7293V2.25906H12.6782V1.01652H13.5694Z" fill="white"/>
<path d="M15.2553 4.77736C15.2553 4.27465 15.3548 3.82252 15.554 3.42099C15.7563 3.01945 16.0356 2.70961 16.3921 2.49145C16.7518 2.27329 17.1612 2.16421 17.6204 2.16421C18.3301 2.16421 18.9033 2.40608 19.3401 2.88982C19.78 3.37356 20 4.01697 20 4.82004V4.88169C20 5.38124 19.9021 5.8302 19.7062 6.22858C19.5135 6.62379 19.2357 6.93205 18.8728 7.15337C18.5132 7.37469 18.0989 7.48535 17.6301 7.48535C16.9236 7.48535 16.3504 7.24348 15.9104 6.75974C15.4737 6.276 15.2553 5.63576 15.2553 4.83901V4.77736ZM16.1513 4.88169C16.1513 5.4508 16.2845 5.90766 16.5511 6.25229C16.8208 6.59691 17.1805 6.76923 17.6301 6.76923C18.0829 6.76923 18.4425 6.59533 18.7091 6.24755C18.9756 5.8966 19.1089 5.40654 19.1089 4.77736C19.1089 4.21457 18.9724 3.75929 18.6994 3.4115C18.4297 3.06055 18.07 2.88508 17.6204 2.88508C17.1805 2.88508 16.8256 3.05739 16.5559 3.40202C16.2861 3.74664 16.1513 4.23987 16.1513 4.88169Z" fill="white"/>
</svg>
