<svg width="12" height="12" viewBox="0 0 12 12" fill="none" xmlns="http://www.w3.org/2000/svg">
<path d="M3 4.5C3.82843 4.5 4.5 3.82843 4.5 3C4.5 2.17157 3.82843 1.5 3 1.5C2.17157 1.5 1.5 2.17157 1.5 3C1.5 3.82843 2.17157 4.5 3 4.5Z" stroke="white" stroke-linecap="round" stroke-linejoin="round"/>
<path d="M3 10.5C3.82843 10.5 4.5 9.82843 4.5 9C4.5 8.17157 3.82843 7.5 3 7.5C2.17157 7.5 1.5 8.17157 1.5 9C1.5 9.82843 2.17157 10.5 3 10.5Z" stroke="white" stroke-linecap="round" stroke-linejoin="round"/>
<path d="M10.0001 2L4.06006 7.94" stroke="white" stroke-linecap="round" stroke-linejoin="round"/>
<path d="M7.23486 7.24023L9.99986 10.0002" stroke="white" stroke-linecap="round" stroke-linejoin="round"/>
<path d="M4.06006 4.06006L6.00006 6.00006" stroke="white" stroke-linecap="round" stroke-linejoin="round"/>
</svg>
