<svg width="18" height="18" viewBox="0 0 18 18" fill="none" xmlns="http://www.w3.org/2000/svg">
<rect x="1.5" y="3.5" width="14.9375" height="11.75" rx="1.5" fill="white" stroke="#A4A4A4"/>
<path d="M8.36328 10.4961C8.31901 11.1081 8.09245 11.5898 7.68359 11.9414C7.27734 12.293 6.74089 12.4688 6.07422 12.4688C5.34505 12.4688 4.77083 12.224 4.35156 11.7344C3.9349 11.2422 3.72656 10.5677 3.72656 9.71094V9.36328C3.72656 8.81641 3.82292 8.33464 4.01562 7.91797C4.20833 7.5013 4.48307 7.18229 4.83984 6.96094C5.19922 6.73698 5.61589 6.625 6.08984 6.625C6.74609 6.625 7.27474 6.80078 7.67578 7.15234C8.07682 7.50391 8.30859 7.9974 8.37109 8.63281H7.19922C7.17057 8.26562 7.06771 8 6.89062 7.83594C6.71615 7.66927 6.44922 7.58594 6.08984 7.58594C5.69922 7.58594 5.40625 7.72656 5.21094 8.00781C5.01823 8.28646 4.91927 8.72005 4.91406 9.30859V9.73828C4.91406 10.3529 5.00651 10.8021 5.19141 11.0859C5.37891 11.3698 5.67318 11.5117 6.07422 11.5117C6.4362 11.5117 6.70573 11.4297 6.88281 11.2656C7.0625 11.099 7.16536 10.8424 7.19141 10.4961H8.36328ZM13.5977 10.4961C13.5534 11.1081 13.3268 11.5898 12.918 11.9414C12.5117 12.293 11.9753 12.4688 11.3086 12.4688C10.5794 12.4688 10.0052 12.224 9.58594 11.7344C9.16927 11.2422 8.96094 10.5677 8.96094 9.71094V9.36328C8.96094 8.81641 9.05729 8.33464 9.25 7.91797C9.44271 7.5013 9.71745 7.18229 10.0742 6.96094C10.4336 6.73698 10.8503 6.625 11.3242 6.625C11.9805 6.625 12.5091 6.80078 12.9102 7.15234C13.3112 7.50391 13.543 7.9974 13.6055 8.63281H12.4336C12.4049 8.26562 12.3021 8 12.125 7.83594C11.9505 7.66927 11.6836 7.58594 11.3242 7.58594C10.9336 7.58594 10.6406 7.72656 10.4453 8.00781C10.2526 8.28646 10.1536 8.72005 10.1484 9.30859V9.73828C10.1484 10.3529 10.2409 10.8021 10.4258 11.0859C10.6133 11.3698 10.9076 11.5117 11.3086 11.5117C11.6706 11.5117 11.9401 11.4297 12.1172 11.2656C12.2969 11.099 12.3997 10.8424 12.4258 10.4961H13.5977Z" fill="#A4A4A4"/>
</svg>
