<svg width="1440" height="1024" viewBox="0 0 1440 1024" fill="none" xmlns="http://www.w3.org/2000/svg">
<rect width="144.181" height="22.5754" rx="11.2877" transform="matrix(-0.707107 0.707107 0.707107 0.707107 1300.88 46.7952)" fill="url(#paint0_linear)"/>
<rect width="192.595" height="17.6088" rx="8.8044" transform="matrix(-0.707107 0.707107 0.707107 0.707107 1324.93 -50)" fill="url(#paint1_linear)"/>
<rect width="192.595" height="14.4998" rx="7.24992" transform="matrix(-0.707107 0.707107 0.707107 0.707107 1424.93 -17)" fill="url(#paint2_linear)"/>
<rect width="192.595" height="14.4998" rx="7.24992" transform="matrix(-0.707107 0.707107 0.707107 0.707107 1443.93 107)" fill="url(#paint3_linear)"/>
<rect width="314.171" height="6.10633" rx="3.05317" transform="matrix(-0.707107 0.707107 0.707107 0.707107 1443.83 61.9683)" fill="url(#paint4_linear)"/>
<rect width="60.3848" height="6.10633" rx="3.05317" transform="matrix(-0.707107 0.707107 0.707107 0.707107 1340.87 143)" fill="url(#paint5_linear)"/>
<rect width="253.858" height="14.4998" rx="7.24992" transform="matrix(-0.707107 0.707107 0.707107 0.707107 1242.25 -40.3193)" fill="url(#paint6_linear)"/>
<rect width="192.595" height="7.72349" rx="3.86174" transform="matrix(-0.707107 0.707107 0.707107 0.707107 1485.72 163.792)" fill="url(#paint7_linear)"/>
<rect width="192.595" height="6.61249" rx="3.30624" transform="matrix(-0.707107 0.707107 0.707107 0.707107 1497.93 96)" fill="url(#paint8_linear)"/>
<rect width="192.595" height="14.4998" rx="7.24992" transform="matrix(-0.707107 0.707107 0.707107 0.707107 1506.93 -34)" fill="url(#paint9_linear)"/>
<rect width="192.595" height="14.4998" rx="7.24992" transform="matrix(0.707107 -0.707107 -0.707107 -0.707107 -30.001 957.438)" fill="url(#paint10_linear)"/>
<rect width="192.595" height="21.1811" rx="10.5906" transform="matrix(0.707107 -0.707107 -0.707107 -0.707107 -2.27637 851.163)" fill="url(#paint11_linear)"/>
<rect width="192.595" height="14.4998" rx="7.24992" transform="matrix(0.707107 -0.707107 -0.707107 -0.707107 -7.00098 1093.44)" fill="url(#paint12_linear)"/>
<rect width="429.358" height="7.80083" rx="3.90041" transform="matrix(0.707107 -0.707107 -0.707107 -0.707107 -33.417 1003.12)" fill="url(#paint13_linear)"/>
<rect width="375.712" height="2.88812" rx="1.44406" transform="matrix(0.707107 -0.707107 -0.707107 -0.707107 -99.958 1098.71)" fill="url(#paint14_linear)"/>
<rect width="192.595" height="14.4998" rx="7.24992" transform="matrix(0.707107 -0.707107 -0.707107 -0.707107 258.998 1093.44)" fill="url(#paint15_linear)"/>
<rect width="192.595" height="14.4998" rx="7.24992" transform="matrix(0.707107 -0.707107 -0.707107 -0.707107 154.999 1083.44)" fill="url(#paint16_linear)"/>
<rect width="264.858" height="7.97029" rx="3.98514" transform="matrix(0.707107 -0.707107 -0.707107 -0.707107 179.382 1015.82)" fill="url(#paint17_linear)"/>
<rect width="111.159" height="14.4998" rx="7.24992" transform="matrix(0.707107 -0.707107 -0.707107 -0.707107 212.583 909.854)" fill="url(#paint18_linear)"/>
<rect width="192.595" height="21.4892" rx="10.7446" transform="matrix(0.707107 -0.707107 -0.707107 -0.707107 96.9414 1072.38)" fill="url(#paint19_linear)"/>
<rect width="192.595" height="17.6088" rx="8.8044" transform="matrix(-0.707107 0.707107 0.707107 0.707107 1264.73 -102)" fill="url(#paint20_linear)"/>
<defs>
<linearGradient id="paint0_linear" x1="150.534" y1="11.2875" x2="-6.1308" y2="11.2875" gradientUnits="userSpaceOnUse">
<stop stop-color="#005FC9" stop-opacity="0.6"/>
<stop offset="1" stop-color="white" stop-opacity="0"/>
</linearGradient>
<linearGradient id="paint1_linear" x1="201.081" y1="8.80425" x2="-8.18945" y2="8.80423" gradientUnits="userSpaceOnUse">
<stop stop-color="#0057B8"/>
<stop offset="1" stop-color="#0582CA" stop-opacity="0"/>
</linearGradient>
<linearGradient id="paint2_linear" x1="201.081" y1="7.24979" x2="-8.18945" y2="7.24976" gradientUnits="userSpaceOnUse">
<stop stop-color="#0057B8"/>
<stop offset="1" stop-color="#0582CA" stop-opacity="0"/>
</linearGradient>
<linearGradient id="paint3_linear" x1="201.081" y1="7.24979" x2="-8.18945" y2="7.24976" gradientUnits="userSpaceOnUse">
<stop stop-color="#0582CA"/>
<stop offset="1" stop-color="#0582CA" stop-opacity="0"/>
</linearGradient>
<linearGradient id="paint4_linear" x1="328.013" y1="3.05311" x2="-13.359" y2="3.05296" gradientUnits="userSpaceOnUse">
<stop stop-color="#0057B8"/>
<stop offset="1" stop-color="#0582CA" stop-opacity="0"/>
</linearGradient>
<linearGradient id="paint5_linear" x1="63.0453" y1="3.05311" x2="-2.56765" y2="3.05311" gradientUnits="userSpaceOnUse">
<stop stop-color="#0057B8"/>
<stop offset="1" stop-color="white" stop-opacity="0"/>
</linearGradient>
<linearGradient id="paint6_linear" x1="265.043" y1="7.24979" x2="-10.7944" y2="7.24975" gradientUnits="userSpaceOnUse">
<stop stop-color="#0057B8"/>
<stop offset="1" stop-color="#0582CA" stop-opacity="0"/>
</linearGradient>
<linearGradient id="paint7_linear" x1="201.081" y1="3.86167" x2="-8.18945" y2="3.86163" gradientUnits="userSpaceOnUse">
<stop stop-color="#348BEC"/>
<stop offset="1" stop-color="#0582CA" stop-opacity="0"/>
</linearGradient>
<linearGradient id="paint8_linear" x1="201.081" y1="3.30618" x2="-8.18945" y2="3.30613" gradientUnits="userSpaceOnUse">
<stop stop-color="#0057B8"/>
<stop offset="1" stop-color="#0582CA" stop-opacity="0"/>
</linearGradient>
<linearGradient id="paint9_linear" x1="201.081" y1="7.24979" x2="-8.18945" y2="7.24976" gradientUnits="userSpaceOnUse">
<stop stop-color="#002E5D"/>
<stop offset="1" stop-color="#0582CA" stop-opacity="0"/>
</linearGradient>
<linearGradient id="paint10_linear" x1="201.081" y1="7.24979" x2="-8.18945" y2="7.24976" gradientUnits="userSpaceOnUse">
<stop stop-color="#0057B8"/>
<stop offset="1" stop-color="#0582CA" stop-opacity="0"/>
</linearGradient>
<linearGradient id="paint11_linear" x1="201.081" y1="10.5904" x2="-8.18945" y2="10.5903" gradientUnits="userSpaceOnUse">
<stop stop-color="#003979"/>
<stop offset="1" stop-color="#0582CA" stop-opacity="0"/>
</linearGradient>
<linearGradient id="paint12_linear" x1="201.081" y1="7.24979" x2="-8.18945" y2="7.24976" gradientUnits="userSpaceOnUse">
<stop stop-color="#004CA1"/>
<stop offset="1" stop-color="#0582CA" stop-opacity="0"/>
</linearGradient>
<linearGradient id="paint13_linear" x1="448.275" y1="3.90034" x2="-18.2569" y2="3.90012" gradientUnits="userSpaceOnUse">
<stop stop-color="#007AC0"/>
<stop offset="1" stop-color="#0582CA" stop-opacity="0"/>
</linearGradient>
<linearGradient id="paint14_linear" x1="392.265" y1="1.44404" x2="-15.9758" y2="1.44358" gradientUnits="userSpaceOnUse">
<stop stop-color="#0057B8"/>
<stop offset="1" stop-color="#0582CA" stop-opacity="0"/>
</linearGradient>
<linearGradient id="paint15_linear" x1="201.081" y1="7.24979" x2="-8.18945" y2="7.24976" gradientUnits="userSpaceOnUse">
<stop stop-color="#5690D0"/>
<stop offset="1" stop-color="#0582CA" stop-opacity="0"/>
</linearGradient>
<linearGradient id="paint16_linear" x1="201.081" y1="7.24979" x2="-8.18945" y2="7.24976" gradientUnits="userSpaceOnUse">
<stop stop-color="#0057B8"/>
<stop offset="1" stop-color="#0582CA" stop-opacity="0"/>
</linearGradient>
<linearGradient id="paint17_linear" x1="276.527" y1="3.98507" x2="-11.2622" y2="3.98499" gradientUnits="userSpaceOnUse">
<stop stop-color="#0057B8"/>
<stop offset="1" stop-color="#0582CA" stop-opacity="0"/>
</linearGradient>
<linearGradient id="paint18_linear" x1="116.056" y1="7.24979" x2="-4.72664" y2="7.24978" gradientUnits="userSpaceOnUse">
<stop stop-color="#0079FF"/>
<stop offset="1" stop-color="white" stop-opacity="0"/>
</linearGradient>
<linearGradient id="paint19_linear" x1="201.081" y1="10.7444" x2="-8.18945" y2="10.7444" gradientUnits="userSpaceOnUse">
<stop stop-color="#0057B8"/>
<stop offset="1" stop-color="#0582CA" stop-opacity="0"/>
</linearGradient>
<linearGradient id="paint20_linear" x1="201.081" y1="8.80425" x2="-8.18945" y2="8.80423" gradientUnits="userSpaceOnUse">
<stop stop-color="#046FAC"/>
<stop offset="1" stop-opacity="0"/>
</linearGradient>
</defs>
</svg>
