<svg width="378" height="306" viewBox="0 0 378 306" fill="none" xmlns="http://www.w3.org/2000/svg">
<rect width="144.181" height="22.5754" rx="11.2877" transform="matrix(-0.707107 0.707107 0.707107 0.707107 238.884 46.7952)" fill="url(#paint0_linear)"/>
<rect width="192.595" height="17.6088" rx="8.8044" transform="matrix(-0.707107 0.707107 0.707107 0.707107 262.931 -50)" fill="url(#paint1_linear)"/>
<rect width="192.595" height="14.4998" rx="7.24992" transform="matrix(-0.707107 0.707107 0.707107 0.707107 362.931 -17)" fill="url(#paint2_linear)"/>
<rect width="192.595" height="14.4998" rx="7.24992" transform="matrix(-0.707107 0.707107 0.707107 0.707107 381.931 107)" fill="url(#paint3_linear)"/>
<rect width="314.171" height="6.10633" rx="3.05317" transform="matrix(-0.707107 0.707107 0.707107 0.707107 381.834 61.9683)" fill="url(#paint4_linear)"/>
<rect width="60.3848" height="6.10633" rx="3.05317" transform="matrix(-0.707107 0.707107 0.707107 0.707107 278.865 143)" fill="url(#paint5_linear)"/>
<rect width="253.858" height="14.4998" rx="7.24992" transform="matrix(-0.707107 0.707107 0.707107 0.707107 180.25 -40.3193)" fill="url(#paint6_linear)"/>
<rect width="192.595" height="7.72349" rx="3.86174" transform="matrix(-0.707107 0.707107 0.707107 0.707107 423.724 163.792)" fill="url(#paint7_linear)"/>
<rect width="192.595" height="6.61249" rx="3.30624" transform="matrix(-0.707107 0.707107 0.707107 0.707107 435.931 96)" fill="url(#paint8_linear)"/>
<rect width="192.595" height="14.4998" rx="7.24992" transform="matrix(-0.707107 0.707107 0.707107 0.707107 444.931 -34)" fill="url(#paint9_linear)"/>
<rect width="192.595" height="17.6088" rx="8.8044" transform="matrix(-0.707107 0.707107 0.707107 0.707107 202.733 -102)" fill="url(#paint10_linear)"/>
<defs>
<linearGradient id="paint0_linear" x1="150.534" y1="11.2875" x2="-6.1308" y2="11.2875" gradientUnits="userSpaceOnUse">
<stop stop-color="#005FC9" stop-opacity="0.6"/>
<stop offset="1" stop-color="white" stop-opacity="0"/>
</linearGradient>
<linearGradient id="paint1_linear" x1="201.081" y1="8.80425" x2="-8.18945" y2="8.80423" gradientUnits="userSpaceOnUse">
<stop stop-color="#0057B8"/>
<stop offset="1" stop-color="#0582CA" stop-opacity="0"/>
</linearGradient>
<linearGradient id="paint2_linear" x1="201.081" y1="7.24979" x2="-8.18945" y2="7.24976" gradientUnits="userSpaceOnUse">
<stop stop-color="#0057B8"/>
<stop offset="1" stop-color="#0582CA" stop-opacity="0"/>
</linearGradient>
<linearGradient id="paint3_linear" x1="201.081" y1="7.24979" x2="-8.18945" y2="7.24976" gradientUnits="userSpaceOnUse">
<stop stop-color="#0582CA"/>
<stop offset="1" stop-color="#0582CA" stop-opacity="0"/>
</linearGradient>
<linearGradient id="paint4_linear" x1="328.013" y1="3.05311" x2="-13.359" y2="3.05296" gradientUnits="userSpaceOnUse">
<stop stop-color="#0057B8"/>
<stop offset="1" stop-color="#0582CA" stop-opacity="0"/>
</linearGradient>
<linearGradient id="paint5_linear" x1="63.0453" y1="3.05311" x2="-2.56765" y2="3.05311" gradientUnits="userSpaceOnUse">
<stop stop-color="#0057B8"/>
<stop offset="1" stop-color="white" stop-opacity="0"/>
</linearGradient>
<linearGradient id="paint6_linear" x1="265.043" y1="7.24979" x2="-10.7944" y2="7.24975" gradientUnits="userSpaceOnUse">
<stop stop-color="#0057B8"/>
<stop offset="1" stop-color="#0582CA" stop-opacity="0"/>
</linearGradient>
<linearGradient id="paint7_linear" x1="201.081" y1="3.86167" x2="-8.18945" y2="3.86163" gradientUnits="userSpaceOnUse">
<stop stop-color="#348BEC"/>
<stop offset="1" stop-color="#0582CA" stop-opacity="0"/>
</linearGradient>
<linearGradient id="paint8_linear" x1="201.081" y1="3.30618" x2="-8.18945" y2="3.30613" gradientUnits="userSpaceOnUse">
<stop stop-color="#0057B8"/>
<stop offset="1" stop-color="#0582CA" stop-opacity="0"/>
</linearGradient>
<linearGradient id="paint9_linear" x1="201.081" y1="7.24979" x2="-8.18945" y2="7.24976" gradientUnits="userSpaceOnUse">
<stop stop-color="#002E5D"/>
<stop offset="1" stop-color="#0582CA" stop-opacity="0"/>
</linearGradient>
<linearGradient id="paint10_linear" x1="201.081" y1="8.80425" x2="-8.18945" y2="8.80423" gradientUnits="userSpaceOnUse">
<stop stop-color="#046FAC"/>
<stop offset="1" stop-opacity="0"/>
</linearGradient>
</defs>
</svg>
