<svg width="542" height="588" viewBox="0 0 542 588" fill="none" xmlns="http://www.w3.org/2000/svg">
<path d="M378 289.376C387.333 294.764 387.333 308.236 378 313.624L227.25 400.66C217.917 406.048 206.25 399.313 206.25 388.536L206.25 214.464C206.25 203.687 217.917 196.951 227.25 202.34L378 289.376Z" fill="white"/>
<mask id="mask0" mask-type="alpha" maskUnits="userSpaceOnUse" x="55" y="37" width="453" height="505">
<path d="M255 44.2998C271.398 34.8322 291.602 34.8322 308 44.2998L480.6 143.95C496.998 153.418 507.1 170.914 507.1 189.85L507.1 389.15C507.1 408.086 496.998 425.582 480.6 435.05L308 534.7C291.602 544.168 271.398 544.168 255 534.7L82.4004 435.05C66.0021 425.582 55.9004 408.086 55.9004 389.15L55.9004 189.85C55.9004 170.914 66.0021 153.418 82.4004 143.95L255 44.2998Z" fill="#002E5D"/>
</mask>
<g mask="url(#mask0)">
<rect x="147.5" y="-164" width="793" height="283" transform="rotate(30 147.5 -164)" fill="#002E5D"/>
</g>
<mask id="mask1" mask-type="alpha" maskUnits="userSpaceOnUse" x="34" y="49" width="453" height="505">
<path d="M234 56.2998C250.398 46.8322 270.602 46.8322 287 56.2998L459.6 155.95C475.998 165.418 486.1 182.914 486.1 201.85L486.1 401.15C486.1 420.086 475.998 437.582 459.6 447.05L287 546.7C270.602 556.168 250.398 556.168 234 546.7L61.4004 447.05C45.0021 437.582 34.9004 420.086 34.9004 401.15L34.9004 201.85C34.9004 182.914 45.0021 165.418 61.4004 155.95L234 56.2998Z" fill="#0582CA"/>
</mask>
<g mask="url(#mask1)">
<rect x="-51" y="-42" width="270" height="727" fill="#0582CA"/>
</g>
<mask id="mask2" mask-type="alpha" maskUnits="userSpaceOnUse" x="55" y="61" width="453" height="505">
<path d="M255 68.2998C271.398 58.8322 291.602 58.8322 308 68.2998L480.6 167.95C496.998 177.418 507.1 194.914 507.1 213.85L507.1 413.15C507.1 432.086 496.998 449.582 480.6 459.05L308 558.7C291.602 568.168 271.398 568.168 255 558.7L82.4004 459.05C66.0021 449.582 55.9004 432.086 55.9004 413.15L55.9004 213.85C55.9004 194.914 66.0021 177.418 82.4004 167.95L255 68.2998Z" fill="#0057B8"/>
</mask>
<g mask="url(#mask2)">
<rect x="-4" y="525.5" width="661" height="317" transform="rotate(-30 -4 525.5)" fill="#0057B8"/>
</g>
<path d="M246.204 49.4841L247.039 220.208L98.2305 134.638L246.204 49.4841Z" fill="#002E5D"/>
<path d="M218.792 364.255L218.838 537.796L68.3432 450.752L218.792 364.255Z" fill="#0582CA"/>
</svg>
